# xmcd
#
# Track frame offsets:
#	150
#	11081
#	19329
#	31008
#	39557
#	50620
#	60963
#	68985
#	77859
#	86733
#
# Disc length: 1298 seconds
#
# Revision: 0
# Processed by: cddbd v1.5.2PL0 Copyright (c) Steve Scherf et al.
# Submitted via: dBpowerAMP V4.0
#
DISCID=7a05100a
DTITLE=Roger Miller - American Music Legends
DYEAR=2007
DGENRE=Country
TTITLE0=King Of The Road
TTITLE1=Dang Me
TTITLE2=Walkin' In The Sunshine
TTITLE3=You Can't Roller Skate In A Buffalo Herd
TTITLE4=Husbands and Wives
TTITLE5=Engine, Engine #9
TTITLE6=Do-wacka-do
TTITLE7=England Swings
TTITLE8=My Uncle Used To Love Me But She Died
TTITLE9=Kansas City Star
EXTD=
EXTT0=
EXTT1=
EXTT2=
EXTT3=
EXTT4=
EXTT5=
EXTT6=
EXTT7=
EXTT8=
EXTT9=
PLAYORDER=
